HIERARCHY
ROOT Hips
{
	OFFSET 0.00000 0.00000 0.00000
	CHANNELS 6 Xposition Yposition Zposition Zrotation Yrotation Xrotation 
	JOINT LHipJoint
	{
		OFFSET 0 0 0
		CHANNELS 3 Zrotation Yrotation Xrotation
		JOINT LeftUpLeg
		{
			OFFSET 1.37590 -1.78394 0.89329
			CHANNELS 3 Zrotation Yrotation Xrotation
			JOINT LeftLeg
			{
				OFFSET 2.47928 -6.81178 0.00000
				CHANNELS 3 Zrotation Yrotation Xrotation
				JOINT LeftFoot
				{
					OFFSET 2.63345 -7.23535 0.00000
					CHANNELS 3 Zrotation Yrotation Xrotation
					JOINT LeftToeBase
					{
						OFFSET 0.23938 -0.65768 2.27012
						CHANNELS 3 Zrotation Yrotation Xrotation
						End Site
						{
							OFFSET 0.00000 -0.00000 1.18363
						}
					}
				}
			}
		}
	}
	JOINT RHipJoint
	{
		OFFSET 0 0 0
		CHANNELS 3 Zrotation Yrotation Xrotation
		JOINT RightUpLeg
		{
			OFFSET -1.33617 -1.78394 0.89329
			CHANNELS 3 Zrotation Yrotation Xrotation
			JOINT RightLeg
			{
				OFFSET -2.56922 -7.05888 0.00000
				CHANNELS 3 Zrotation Yrotation Xrotation
				JOINT RightFoot
				{
					OFFSET -2.56568 -7.04915 0.00000
					CHANNELS 3 Zrotation Yrotation Xrotation
					JOINT RightToeBase
					{
						OFFSET -0.27533 -0.75646 2.18105
						CHANNELS 3 Zrotation Yrotation Xrotation
						End Site
						{
							OFFSET -0.00000 -0.00000 1.15233
						}
					}
				}
			}
		}
	}
	JOINT LowerBack
	{
		OFFSET 0 0 0
		CHANNELS 3 Zrotation Yrotation Xrotation
		JOINT Spine
		{
			OFFSET 0.06190 2.15152 -0.00935
			CHANNELS 3 Zrotation Yrotation Xrotation
			JOINT Spine1
			{
				OFFSET 0.06334 2.15332 0.00872
				CHANNELS 3 Zrotation Yrotation Xrotation
				JOINT Neck
				{
					OFFSET 0 0 0
					CHANNELS 3 Zrotation Yrotation Xrotation
					JOINT Neck1
					{
						OFFSET -0.04202 1.66908 0.23524
						CHANNELS 3 Zrotation Yrotation Xrotation
						JOINT Head
						{
							OFFSET 0.07510 1.69357 -0.24440
							CHANNELS 3 Zrotation Yrotation Xrotation
							End Site
							{
								OFFSET 0.02556 1.71719 -0.11000
							}
						}
					}
				}
				JOINT LeftShoulder
				{
					OFFSET 0 0 0
					CHANNELS 3 Zrotation Yrotation Xrotation
					JOINT LeftArm
					{
						OFFSET 3.67168 1.26306 -0.41342
						CHANNELS 3 Zrotation Yrotation Xrotation
						JOINT LeftForeArm
						{
							OFFSET 4.68510 -0.00000 -0.00000
							CHANNELS 3 Zrotation Yrotation Xrotation
							JOINT LeftHand
							{
								OFFSET 3.39626 -0.00000 -0.00000
								CHANNELS 3 Zrotation Yrotation Xrotation
								JOINT LeftFingerBase
								{
									OFFSET 0 0 0
									CHANNELS 3 Zrotation Yrotation Xrotation
									JOINT LeftHandIndex1
									{
										OFFSET 0.48608 -0.00000 -0.00000
										CHANNELS 3 Zrotation Yrotation Xrotation
										End Site
										{
											OFFSET 0.39189 -0.00000 -0.00000
										}
									}
								}
								JOINT LThumb
								{
									OFFSET 0 0 0
									CHANNELS 3 Zrotation Yrotation Xrotation
									End Site
									{
										OFFSET 0.39787 -0.00000 0.39787
									}
								}
							}
						}
					}
				}
				JOINT RightShoulder
				{
					OFFSET 0 0 0
					CHANNELS 3 Zrotation Yrotation Xrotation
					JOINT RightArm
					{
						OFFSET -3.04136 1.42992 -0.76390
						CHANNELS 3 Zrotation Yrotation Xrotation
						JOINT RightForeArm
						{
							OFFSET -5.55576 -0.00000 -0.00000
							CHANNELS 3 Zrotation Yrotation Xrotation
							JOINT RightHand
							{
								OFFSET -3.32774 -0.00000 -0.00000
								CHANNELS 3 Zrotation Yrotation Xrotation
								JOINT RightFingerBase
								{
									OFFSET 0 0 0
									CHANNELS 3 Zrotation Yrotation Xrotation
									JOINT RightHandIndex1
									{
										OFFSET -0.50763 -0.00000 -0.00000
										CHANNELS 3 Zrotation Yrotation Xrotation
										End Site
										{
											OFFSET -0.40926 -0.00000 -0.00000
										}
									}
								}
								JOINT RThumb
								{
									OFFSET 0 0 0
									CHANNELS 3 Zrotation Yrotation Xrotation
									End Site
									{
										OFFSET -0.41551 -0.00000 0.41551
									}
								}
							}
						}
					}
				}
			}
		}
	}
}
MOTION
Frames: 15
Frame Time: 0.0512821
0.00 0.00 0.00 -85.4117 -80.9327 90.2238 0.0000 0.0000 0.0000 -2.5395 -9.2497 -26.1486 5.8071 14.2388 44.2026 0.3504 -1.5718 -10.7434 0.7960 -5.6948 -15.9013 0.0000 0.0000 0.0000 37.8656 4.4453 -8.7595 -1.4988 -7.7332 21.9067 -0.4872 0.5947 -12.9926 -0.9651 -6.2550 17.5262 4.6941 -0.8602 1.2748 1.3492 -0.9884 -3.7542 -1.1768 -0.6633 -4.6554 -13.3369 -12.4021 -9.4142 12.0661 -16.6785 10.7634 4.2398 -7.9136 6.9685 -0.0000 0.0000 0.0000 -73.2124 3.9236 -4.8177 11.9863 -19.7842 -2.0977 -0.0000 -0.0000 26.2566 12.7912 23.7188 5.2180 -7.1250 0.0000 -0.0000 -17.1010 53.4141 -3.6219 -0.0000 0.0000 0.0000 -10.2795 38.6096 -68.9432 -126.2888 54.3869 -90.8346 0.0000 0.0000 34.9215 -65.0399 -40.4933 54.3671 7.1250 -0.0000 -0.0000 -98.9091 78.3247 -110.8677
0.00 0.00 0.00 -100.0370 -80.4291 105.6750 0.0000 0.0000 0.0000 -2.7791 -9.4773 -28.6863 4.2281 12.4580 37.3719 0.3157 -1.7174 -10.1532 0.8063 -5.7308 -16.0053 0.0000 0.0000 0.0000 38.6104 4.1884 -6.1816 -1.2985 -7.2195 20.3672 -0.5034 2.3213 -12.8056 -1.0006 -6.3656 17.8489 5.5152 0.0505 0.6340 1.4673 0.2120 -4.0532 -1.5751 -0.1046 -4.5389 -13.7601 -12.7483 -9.3428 12.0150 -17.0455 10.4224 4.2377 -8.1104 6.9267 0.0000 -0.0000 0.0000 -73.8253 3.6458 -2.8712 12.7002 -20.8464 -2.3455 -0.0000 -0.0000 24.8042 12.8524 22.7988 5.0524 -7.1250 0.0000 -0.0000 -16.5906 52.5377 -3.1480 0.0000 -0.0000 0.0000 -5.3081 41.4860 -63.4267 -112.4984 57.9982 -79.3532 0.0000 0.0000 36.6725 -65.8199 -45.8888 57.9799 7.1250 -0.0000 -0.0000 -129.4900 78.6461 -138.8890
0.00 0.00 0.00 -114.3080 -79.4024 120.7660 0.0000 0.0000 0.0000 -3.0528 -9.6722 -30.0730 2.8486 10.4458 30.4329 0.2419 -1.3823 -8.9083 0.8305 -5.8141 -16.2460 0.0000 0.0000 0.0000 38.8421 3.9401 -4.0487 -1.2171 -6.9980 19.7095 -0.4877 4.3602 -12.4255 -0.9992 -6.3613 17.8365 6.1571 1.0142 -0.0760 1.4880 1.4564 -4.2545 -1.9523 0.4882 -4.2508 -14.2828 -13.0445 -9.2852 12.1259 -17.3434 9.9801 4.3108 -8.2676 6.8716 -0.0000 0.0000 0.0000 -74.4753 3.5327 -0.4184 13.7980 -22.4452 -2.7505 -0.0000 -0.0000 23.0846 12.9068 22.0240 4.9115 -7.1250 0.0000 -0.0000 -16.1784 51.7970 -2.7680 -0.0000 0.0000 0.0000 2.7940 44.0124 -53.9463 -94.7729 59.9137 -64.1323 0.0000 0.0000 35.6122 -57.1731 -48.3459 49.1920 7.1250 -0.0000 -0.0000 -127.6074 83.6364 -132.8358
0.00 0.00 0.00 -133.1310 -77.0197 140.7030 0.0000 0.0000 0.0000 -3.9027 -10.6700 -29.9215 1.3452 7.3431 20.7359 0.0958 0.5722 -6.0838 0.7222 -5.4302 -15.1399 0.0000 0.0000 0.0000 37.7008 3.1071 -1.6533 -1.4320 -7.5663 21.4042 -0.2991 8.3707 -10.6099 -0.8607 -5.9161 16.5412 6.4186 2.4728 -1.2699 1.3758 3.2954 -4.4100 -2.2123 1.4027 -3.5736 -15.2894 -13.3895 -9.2545 12.5064 -17.6386 9.2237 4.5379 -8.4218 6.7931 -0.0000 -0.0000 0.0000 -75.9255 3.8150 2.9054 16.1469 -25.7195 -3.7095 -0.0000 -0.0000 20.4451 13.1660 21.2685 4.8501 -7.1250 0.0000 -0.0000 -15.5957 51.1054 -2.3953 -0.0000 -0.0000 0.0000 25.4815 44.5388 -29.4125 -73.3061 58.9203 -45.5951 0.0000 0.0000 31.2606 -40.0631 -41.9781 29.3571 7.1250 -0.0000 -0.0000 -7.6021 -79.5115 6.0961
0.00 0.00 0.00 -147.6060 -75.3426 155.2030 0.0000 0.0000 0.0000 -7.5500 -11.8120 -26.4804 0.9289 6.1397 17.1904 0.0054 1.8320 -3.0611 0.2415 -3.1628 -8.7324 0.0000 0.0000 0.0000 33.0902 1.2607 -2.8143 -2.9428 -10.6018 30.9485 0.2837 10.9540 -2.0024 -0.6379 -5.1100 14.2226 4.9602 3.1616 -2.1471 1.1396 4.1341 -4.1762 -1.5970 1.8925 -2.8389 -16.2071 -13.3400 -9.2441 12.8425 -17.4298 8.7539 4.8116 -8.3304 6.7280 0.0000 -0.0000 0.0000 -78.6665 4.9064 3.4332 17.9186 -28.0529 -4.5109 -0.0000 -0.0000 18.7980 13.5902 20.9349 4.9368 -7.1250 0.0000 -0.0000 -15.0476 50.8483 -2.2113 0.0000 -0.0000 0.0000 59.6761 30.3376 3.3206 -63.0702 57.0740 -36.9072 0.0000 0.0000 30.4438 -41.6302 -39.1895 29.3191 7.1250 -0.0000 -0.0000 -13.7026 -77.1476 10.3471
0.00 0.00 0.00 -164.7410 -74.5943 172.4290 0.0000 0.0000 0.0000 -14.3552 -4.1813 -6.3664 4.7197 13.0610 39.5974 0.0248 -1.3867 -2.8138 1.4752 -7.6746 -21.7300 0.0000 0.0000 0.0000 20.4517 11.3727 -21.3574 -1.0638 -6.5573 18.4103 0.1854 -7.6361 -3.4801 -0.7505 -5.5334 15.4365 2.2012 -2.7430 0.0591 5.0851 -3.7088 -1.7189 4.0580 -1.9099 -1.6010 -8.4646 -6.6854 -16.0049 6.5733 -8.0592 9.9408 2.6269 -3.7367 6.2355 -0.0000 -0.0000 0.0000 -87.3212 -3.5403 20.9489 18.4111 -28.6803 -4.7449 -0.0000 -0.0000 21.0747 13.6037 22.9179 5.3834 -7.1250 0.0000 -0.0000 -15.9139 52.7844 -3.1115 -0.0000 -0.0000 0.0000 81.9311 -0.1528 -3.9017 -10.4365 17.4194 -1.6031 0.0000 0.0000 19.9785 -17.7288 -28.9042 8.7841 7.1250 -0.0000 -0.0000 14.9963 -59.4477 -5.3654
0.00 0.00 0.00 -142.9300 -74.4902 151.2650 0.0000 0.0000 0.0000 -1.2471 -8.0428 -28.8413 2.3277 9.5177 27.4286 0.0051 6.6547 -9.6190 0.5678 -4.8259 -13.4126 0.0000 0.0000 0.0000 30.2765 4.7095 -1.9992 -0.6623 -5.2047 14.4935 -0.3358 -4.6615 -13.6647 -0.1719 -2.6711 7.3643 7.8907 0.3182 -0.4019 4.5231 0.3780 -2.2126 0.2536 0.0117 -2.0395 -10.7305 -9.5090 -13.0055 7.9624 -11.9187 9.8029 3.0525 -5.6575 6.2154 -0.0000 0.0000 0.0000 -89.4070 3.7668 36.2614 37.2190 -46.3332 -16.3983 -0.0000 -0.0000 13.3319 10.5216 20.7390 3.7629 -7.1250 0.0000 -0.0000 -17.8787 50.1746 -2.3462 -0.0000 0.0000 0.0000 73.0692 22.0805 22.7232 -31.2916 41.9751 -12.2644 0.0000 0.0000 7.9856 -22.7534 -26.6582 10.6569 7.1250 -0.0000 -0.0000 8.2685 -58.3523 -2.7124
0.00 0.00 0.00 -139.8670 -78.3174 148.0060 0.0000 0.0000 0.0000 -5.1751 -10.0916 -27.1127 0.9482 6.2015 17.3703 -0.0581 5.2920 -5.2538 0.1562 -2.5468 -7.0193 0.0000 0.0000 0.0000 27.4779 4.2188 -1.5285 -2.5889 -9.9978 28.9697 -0.0067 -8.7883 -12.6491 -0.3159 3.6130 -9.9905 5.7306 -0.5154 -1.2988 3.8990 -0.7798 -2.3265 0.8066 -0.5053 -1.6870 -11.5366 -10.1708 -12.3659 9.0544 -12.8288 8.7910 3.4440 -6.0757 6.0043 0.0000 -0.0000 0.0000 -89.1413 1.8234 44.9560 43.4099 -49.9653 -21.0141 -0.0000 -0.0000 7.6631 14.2015 28.6578 6.9199 -7.1250 0.0000 -0.0000 -18.5657 58.4156 -6.2297 0.0000 -0.0000 0.0000 75.1034 16.5981 27.7918 -62.3057 56.8937 -36.2662 0.0000 0.0000 11.8229 -23.0564 -23.2916 9.5534 7.1250 -0.0000 -0.0000 6.5210 -54.9348 -1.5961
0.00 0.00 0.00 -144.2740 -81.1961 150.8050 0.0000 0.0000 0.0000 -10.9929 -10.1308 -23.1622 1.3598 7.3811 20.8494 0.0270 2.8805 -5.4059 0.0135 -0.7511 -2.0642 0.0000 0.0000 0.0000 23.5924 4.3906 -8.2310 -5.8223 -14.2539 44.2642 0.5732 -13.2885 -5.6728 -0.1997 2.8779 -7.9389 3.0102 -1.5982 -0.8309 3.5161 -2.1664 -2.0606 1.9384 -1.1362 -1.6239 -11.5633 -10.0325 -11.7543 9.1990 -12.6954 8.3546 3.5433 -6.0241 5.7645 -0.0000 0.0000 0.0000 -90.1072 -5.5294 54.0909 46.2414 -51.3624 -23.2044 -0.0000 -0.0000 5.0769 15.4850 31.0470 8.1315 -7.1250 0.0000 -0.0000 -18.9512 60.9690 -7.5280 -0.0000 0.0000 0.0000 76.5254 15.3984 31.1067 -78.8173 59.5222 -50.3311 0.0000 0.0000 14.6043 -24.4793 -21.7421 9.5730 7.1250 -0.0000 -0.0000 4.5206 -53.5856 -0.9559
0.00 0.00 0.00 -158.6070 -85.6432 163.0750 0.0000 0.0000 0.0000 -20.1970 -8.4304 -10.7123 1.3874 7.4525 21.0630 0.3616 -0.6456 -11.1505 0.0018 0.2753 0.7564 0.0000 0.0000 0.0000 16.6976 5.3737 -26.3495 -8.9140 -16.7521 55.7923 1.0275 -17.6322 -5.4859 -0.0459 -1.3833 3.8040 -1.0182 -3.9702 0.0475 3.9735 -5.3190 -1.9272 4.7192 -2.6478 -1.5377 -10.6095 -9.0901 -10.9690 8.3067 -11.4496 6.9985 3.3217 -5.4683 4.9723 -0.0000 -0.0000 0.0000 -97.2398 -27.2479 70.9617 52.7871 -54.0595 -28.4156 -0.0000 0.0000 -0.9825 15.1615 30.9651 7.9370 -7.1250 0.0000 -0.0000 -19.2348 60.8138 -7.5743 -0.0000 -0.0000 0.0000 74.2545 25.2391 36.3962 -97.0209 59.8129 -66.0765 0.0000 0.0000 19.3447 -28.1506 -20.4148 10.5724 7.1250 -0.0000 -0.0000 0.3658 -52.8649 -0.0708
0.00 0.00 0.00 -173.7520 -87.1407 178.8470 0.0000 0.0000 0.0000 -23.3420 -6.3327 -4.8410 1.1898 6.9218 19.4840 0.6680 -1.8727 -14.9146 0.0060 -0.4983 -1.3692 0.0000 0.0000 0.0000 13.9025 6.1466 -32.4991 -5.0858 -13.4798 41.1921 0.7237 -15.5097 -10.5397 -0.0604 -1.5852 4.3606 -1.6941 -5.1809 -0.1000 4.9102 -6.9550 -2.4370 6.0770 -3.4591 -1.6448 -9.8397 -8.4735 -10.6806 7.4923 -10.5987 5.7219 3.0748 -5.0847 4.3634 0.0000 -0.0000 0.0000 -105.3279 -39.9235 78.3004 54.7799 -54.7504 -30.0362 -0.0000 0.0000 -6.7174 14.8455 32.4352 8.0912 -7.1250 0.0000 -0.0000 -20.7967 62.1062 -8.8580 0.0000 -0.0000 0.0000 70.2973 36.4698 35.7794 -98.2937 59.7385 -67.1763 0.0000 0.0000 20.6576 -30.6977 -20.4736 11.7315 7.1250 -0.0000 -0.0000 -2.3008 -53.4363 0.4776
0.00 0.00 0.00 -200.1790 -86.8828 206.8310 0.0000 0.0000 0.0000 -25.7402 -3.9361 -1.5341 1.3016 7.2276 20.3914 0.9416 -3.4059 -17.5102 0.1178 -2.2125 -6.0932 0.0000 0.0000 0.0000 11.2984 8.0607 -35.0136 -1.9124 -8.6812 24.8031 0.4412 -12.8509 -10.4920 -0.0013 0.2366 -0.6501 -1.4484 -6.0623 -0.5636 5.9978 -8.1525 -3.2036 7.0647 -4.0642 -1.9198 -9.0146 -7.8392 -10.6997 6.5303 -9.7226 4.6044 2.7556 -4.6842 3.8578 0.0000 -0.0000 0.0000 -115.8235 -48.8206 84.2155 53.7829 -54.4118 -29.2237 -0.0000 0.0000 -16.2769 14.9061 37.4450 9.1934 -7.1250 0.0000 -0.0000 -26.0548 66.6293 -13.9792 0.0000 -0.0000 0.0000 65.8916 47.7188 33.1456 -92.2519 59.9808 -61.9501 0.0000 0.0000 22.4152 -34.8427 -20.6015 13.7632 7.1250 -0.0000 -0.0000 -6.7774 -54.4606 1.5809
0.00 0.00 0.00 -188.1720 -83.7257 196.5190 0.0000 0.0000 0.0000 -25.2534 -0.8697 -4.4759 3.7616 11.8362 35.1551 0.2825 -5.5433 -9.6396 1.0555 -6.5324 -18.3372 0.0000 0.0000 0.0000 11.5804 14.9293 -34.0797 -1.3822 -7.4392 21.0231 0.2540 -8.8966 -3.5181 -0.0592 -1.5702 4.3194 2.2599 -6.8685 -0.4146 8.8900 -9.3340 -3.3296 8.1074 -4.7949 -2.0825 -7.0947 -6.3307 -11.9132 4.4095 -7.7022 3.6110 1.9613 -3.7375 3.4304 -0.0000 0.0000 0.0000 -127.3742 -50.0211 87.0273 51.8109 -53.7002 -27.6270 -0.0000 0.0000 -36.4976 17.2818 47.2921 12.8774 -7.1250 0.0000 -0.0000 -43.1617 75.0840 -31.8789 -0.0000 0.0000 0.0000 63.8490 54.0702 34.3177 -81.4001 59.7187 -52.5593 0.0000 0.0000 30.8607 -46.1608 -21.6319 21.0013 7.1250 -0.0000 -0.0000 -20.5433 -58.5743 7.0075
0.00 0.00 0.00 -174.5420 -78.6141 183.0790 0.0000 0.0000 0.0000 -21.1800 0.4700 -17.1300 7.7040 15.8972 51.4895 0.0314 -0.5801 -3.1936 1.1031 -6.6734 -18.7512 0.0000 0.0000 0.0000 16.7150 19.3973 -27.3088 -2.3364 -9.5342 27.4812 0.0101 -2.6788 -3.0995 -0.7213 -5.4270 15.1307 5.9253 -7.0675 0.6176 11.0640 -9.8837 -1.4668 8.4326 -5.2482 -0.8516 -5.4177 -4.7764 -13.0480 3.1892 -5.7489 2.8087 1.6131 -2.8072 3.5364 -0.0000 0.0000 0.0000 -119.3178 -41.9732 90.2338 54.6011 -54.6906 -29.8902 -0.0000 0.0000 -43.1736 7.7642 45.9673 5.5985 -7.1250 0.0000 -0.0000 -48.6120 70.8014 -32.2318 -0.0000 0.0000 0.0000 66.9647 35.0305 39.2371 -90.0164 60.0000 -60.0142 0.0000 0.0000 32.0713 -56.8095 -26.4930 34.2917 7.1250 -0.0000 -0.0000 -42.3619 -67.7500 24.8648
0.00 0.00 0.00 -171.9240 -71.0031 181.6180 0.0000 0.0000 0.0000 -15.3733 0.4918 -32.0405 5.3359 13.7524 42.2546 0.1640 5.5203 -11.6165 0.6687 -5.2295 -14.5644 0.0000 0.0000 0.0000 22.0793 19.6810 -14.5679 -2.1307 -9.1332 26.2128 -0.3589 1.4859 -10.8956 -0.4283 -4.2001 11.6402 8.5166 -7.2534 0.4937 11.0756 -10.5606 0.7628 6.8352 -5.6143 1.2021 -3.5540 -2.4811 -14.2680 1.3890 -2.8319 4.2127 0.8826 -1.4185 4.0471 -0.0000 0.0000 0.0000 -97.4713 -24.1302 78.8019 53.3802 -54.2710 -28.8965 -0.0000 0.0000 -20.7743 -4.2827 39.0096 -2.6988 -7.1250 0.0000 -0.0000 -47.5363 62.5245 -22.8904 -0.0000 0.0000 0.0000 72.6250 -4.6907 28.4874 -82.7023 59.7978 -53.6843 0.0000 -0.0000 -1.4928 -55.6582 -35.3643 40.2687 7.1250 -0.0000 -0.0000 -53.4719 -76.6533 41.8374
